<svg xmlns="http://www.w3.org/2000/svg"><symbol id="icon-american-flag" viewBox="0 0 30.001 22.006"><path d="M15 5.003h15v2H15zm-15 5h30v2H0zm0 5h30v2H0zm0 5h30v2H0z"/><path d="M28 0h2v22h-2z"/><path d="M15 2V0h15v2zM0 0h2v22H0z"/><path d="M0 0h15v12H0z"/></symbol><symbol id="icon-menu" viewBox="0 0 24 18"><path d="M0 0h24v2H0zm0 8h24v2H0zm0 8h24v2H0z"/></symbol><symbol id="icon-sas-lockup" viewBox="0 0 253 32"><path d="M15.897 14.468c-.057-.376-.364-1.011-1.341-1.011-.67 0-1.102.42-1.102.863 0 .387.239.67.795.773l1.079.204c1.534.284 2.329 1.272 2.329 2.42 0 1.261-1.056 2.544-2.976 2.544-2.227 0-3.181-1.443-3.295-2.579l1.648-.398c.068.739.568 1.387 1.67 1.387.704 0 1.136-.341 1.136-.841 0-.409-.329-.705-.863-.807l-1.102-.204c-1.363-.262-2.192-1.17-2.192-2.363 0-1.523 1.341-2.591 2.886-2.591 2.011 0 2.772 1.205 2.942 2.148l-1.614.455zm10.249 5.623v-3.203h-3.215v3.203h-1.795v-8.055h1.795v3.159h3.215v-3.159h1.806v8.055h-1.806zm10.614-1.636h-3.113l-.58 1.636h-1.886l3.033-8.055h2.079l2.999 8.055H37.34l-.58-1.636zm-2.522-1.636h1.954l-.966-2.783-.988 2.783zm13.397 3.272l-3.317-5.294v5.294h-1.784v-8.055h2.181l3.022 4.897v-4.897h1.795v8.055h-1.897zm11.875 0l-.114-.818c-.352.511-1.114.988-2.261.988-2.238 0-4.079-1.647-4.079-4.192 0-2.534 1.92-4.204 4.192-4.204 2.306 0 3.374 1.364 3.726 2.488l-1.727.602c-.125-.5-.659-1.409-2-1.409-1.091 0-2.374.727-2.374 2.522 0 1.681 1.114 2.556 2.42 2.556 1.329 0 1.886-.863 1.988-1.317h-2.42v-1.523h4.102v4.306H59.51zm10.228 0v-3.203h-3.215v3.203h-1.795v-8.055h1.795v3.159h3.215v-3.159h1.806v8.055h-1.806zm10.613-1.636h-3.113l-.58 1.636h-1.886l3.033-8.055h2.079l2.999 8.055h-1.954l-.578-1.636zm-2.522-1.636h1.954l-.966-2.783-.988 2.783zm8.296 3.272v-8.055h1.818v8.055h-1.818zm15.669-1.636h-3.113l-.579 1.636h-1.886l3.033-8.055h2.079l2.999 8.055h-1.954l-.579-1.636zm-2.522-1.636h1.954l-.966-2.783-.988 2.783zm15.658 3.272v-5.339l-2.101 5.339h-1.454l-2.102-5.272v5.272h-1.704v-8.055h2.34l2.215 5.442 2.102-5.442h2.465v8.055h-1.761zm5.763 0v-8.055h5.101v1.693h-3.306v1.534h2.999v1.578h-2.999v1.546h3.317v1.704h-5.112zm11.306-2.999h-.636v2.999h-1.795v-8.055h3.192c1.59 0 2.613 1.091 2.613 2.522 0 1.091-.602 1.92-1.59 2.273l1.636 3.26h-1.977l-1.443-2.999zm.421-1.546c.738 0 1.136-.408 1.136-.977 0-.602-.398-.977-1.136-.977h-1.056v1.954h1.056zm6.535 4.545v-8.055h1.818v8.055h-1.818zm5.34-4.01c0-2.511 1.909-4.215 4.158-4.215 2.42 0 3.488 1.556 3.749 2.716l-1.693.534c-.125-.557-.636-1.499-2.056-1.499-1.08 0-2.295.772-2.295 2.465 0 1.511 1.113 2.385 2.318 2.385 1.397 0 1.954-.931 2.113-1.511l1.716.489c-.261 1.113-1.329 2.817-3.829 2.817-2.317-.001-4.181-1.671-4.181-4.181zm15.919 2.374h-3.113l-.579 1.636h-1.886l3.033-8.055h2.079l2.999 8.055h-1.954l-.579-1.636zm-2.521-1.636h1.954l-.966-2.783-.988 2.783zm13.397 3.272l-3.318-5.294v5.294h-1.784v-8.055h2.181l3.022 4.897v-4.897h1.795v8.055h-1.896zm14.863-5.623c-.057-.376-.363-1.011-1.341-1.011-.67 0-1.102.42-1.102.863 0 .387.239.67.795.773l1.079.204c1.534.284 2.33 1.272 2.33 2.42 0 1.261-1.056 2.544-2.977 2.544-2.227 0-3.181-1.443-3.295-2.579l1.648-.398c.067.739.567 1.387 1.67 1.387.704 0 1.135-.341 1.135-.841 0-.409-.329-.705-.863-.807l-1.103-.204c-1.363-.262-2.192-1.17-2.192-2.363 0-1.523 1.341-2.591 2.885-2.591 2.011 0 2.773 1.205 2.942 2.148l-1.611.455zm4.762 1.613c0-2.511 1.909-4.215 4.158-4.215 2.42 0 3.488 1.556 3.749 2.716l-1.693.534c-.124-.557-.636-1.499-2.056-1.499-1.08 0-2.295.772-2.295 2.465 0 1.511 1.113 2.385 2.318 2.385 1.397 0 1.954-.931 2.113-1.511l1.715.489c-.261 1.113-1.329 2.817-3.828 2.817-2.318-.001-4.181-1.671-4.181-4.181zm16.499 4.01v-3.203h-3.216v3.203h-1.795v-8.055h1.795v3.159h3.216v-3.159h1.806v8.055h-1.806zm9.523-8.225c2.261 0 4.181 1.648 4.181 4.204 0 2.545-1.92 4.192-4.181 4.192-2.272 0-4.192-1.647-4.192-4.192 0-2.557 1.92-4.204 4.192-4.204zm0 6.623c1.114 0 2.318-.75 2.318-2.432 0-1.681-1.204-2.442-2.318-2.442-1.124 0-2.329.761-2.329 2.442 0 1.682 1.205 2.432 2.329 2.432zm11.443-6.623c2.261 0 4.181 1.648 4.181 4.204 0 2.545-1.919 4.192-4.181 4.192-2.272 0-4.192-1.647-4.192-4.192 0-2.557 1.921-4.204 4.192-4.204zm0 6.623c1.113 0 2.318-.75 2.318-2.432 0-1.681-1.205-2.442-2.318-2.442-1.125 0-2.329.761-2.329 2.442.001 1.682 1.205 2.432 2.329 2.432zm7.717 1.602v-8.055h1.795v6.34h3.477v1.715h-5.272z"/><path d="M0 2v28a2 2 0 0 0 2 2h249a2 2 0 0 0 2-2V2a2 2 0 0 0-2-2H2a2 2 0 0 0-2 2zm249 27H4a1 1 0 0 1-1-1V4a1 1 0 0 1 1-1h245a1 1 0 0 1 1 1v24a1 1 0 0 1-1 1z"/></symbol><symbol id="icon-search" viewBox="0 0 21.864 21.864"><path d="M12.864 2c1.87 0 3.628.728 4.95 2.05A6.954 6.954 0 0 1 19.864 9c0 1.87-.728 3.628-2.05 4.95a6.954 6.954 0 0 1-4.95 2.05 6.954 6.954 0 0 1-4.95-2.05A6.954 6.954 0 0 1 5.864 9c0-1.87.728-3.628 2.05-4.95A6.956 6.956 0 0 1 12.864 2m0-2a9 9 0 1 0 0 18 9 9 0 1 0 0-18zM5.657 14.793L0 20.45l1.414 1.414 5.657-5.657-1.414-1.414z"/></symbol></svg>