<svg xmlns="http://www.w3.org/2000/svg" viewBox="0 0 30 22"><path d="M0 2V0h30v2z"/><path d="M28 0h2v22h-2zM0 0h2v22H0zm3.669 7.166l3.238-3.247L8.323 5.33 5.085 8.578zm.001 7.674l1.413-1.416 3.248 3.24-1.413 1.416zm18.001-9.504l1.413-1.416 3.247 3.24-1.412 1.416zm.006 11.333l3.238-3.248 1.416 1.412-3.238 3.248zM13 14.464C11.09 13.361 10.433 10.91 11.536 9S15.09 6.433 17 7.536 19.567 11.09 18.464 13 14.91 15.567 13 14.464m-1 1.732a6 6 0 1 0 6-10.392 6 6 0 1 0-6 10.392z"/><path d="M13 14.464l1.238-2.145L15 11c-.667 1.155-1.866 1.232-2.732.732-.866-.5-1.399-1.577-.732-2.732l-.762 1.319-1.238 2.145"/><path d="M17.464 14.732l1-1.732c.667-1.155.134-2.232-.732-2.732S15.667 9.845 15 11l-2.5 4.33M0 22v-2h30v2z"/></svg>